# xmcd
#
# Track frame offsets: 
#        151
#        13131
#        27982
#        47151
#        76172
#        93540
#        115579
#        134697
#        159746
#        171754
#        189711
#
# Disc length: 2868 seconds
#
# Revision: 0
# Processed by: cddbd v1.5.2PL0 Copyright (c) Steve Scherf et al.
# Submitted via: ExactAudioCopy v0.95b4
#
DISCID=8f0b320b
DTITLE=Bob Pearce - Making My Way Back Home
DYEAR=2007
DGENRE=Soul
TTITLE0=That Was Then This Is Now
TTITLE1=Too Long Could Be Too Late
TTITLE2=More Of You
TTITLE3=I Won't Do What I Used To Do
TTITLE4=Standing At The Door To Your Heart
TTITLE5=World Of Greed
TTITLE6=I Don't Want Religion
TTITLE7=Old Friends
TTITLE8=None Like You
TTITLE9=I Won't Survive
TTITLE10=Carry Me
EXTD=
EXTT0=
EXTT1=
EXTT2=
EXTT3=
EXTT4=
EXTT5=
EXTT6=
EXTT7=
EXTT8=
EXTT9=
EXTT10=
PLAYORDER=
